<svg width="800" height="800" viewBox="0 0 800 800" fill="none" xmlns="http://www.w3.org/2000/svg">
<style>.movie_card_3_881 {
	animation: 2.1s linear 0s infinite normal forwards running movie_card_3_881;
	transform-box: fill-box;
	transform-origin: 50% 50%;
	transform: translateX(250px) translateY(171px);
}
@keyframes movie_card_3_881 {
	0% {
		transform: translateX(250px) translateY(171px);
		opacity: 0.2;
	}
	23.81% {
		transform: translateX(250px) translateY(171px);
		opacity: 0.2;
	}
	33.33% {
		transform: translateX(250px) translateY(196px);
		opacity: 0.6;
	}
	90.48% {
		transform: translateX(250px) translateY(196px);
		opacity: 0.6;
	}
	100% {
		transform: translateX(250px) translateY(221px);
		opacity: 1;
	}
}.movie_card_2_421 {
	animation: 2.1s linear 0s infinite normal forwards running movie_card_2_421;
	transform-box: fill-box;
	transform-origin: 50% 50%;
	transform: translateX(250px) translateY(197px);
}
@keyframes movie_card_2_421 {
	0% {
		transform: translateX(250px) translateY(197px) rotate(0deg);
		opacity: 0.6;
	}
	100% {
		opacity: 0;
	}
	23.81% {
		transform: translateX(250px) translateY(197px);
		opacity: 0.6;
	}
	33.33% {
		transform: translateX(250px) translateY(229px);
		opacity: 1;
	}
	66.67% {
		transform: translateX(250px) translateY(229px) rotate(0deg);
	}
	71.43% {
		transform: translateX(150px) translateY(279px);
	}
	76.19% {
		transform: translateX(250px) translateY(197px) rotate(-10deg);
	}
	80.95% {
		transform: translateX(50px) translateY(329px);
	}
	90.48% {
		transform: translateX(-50px) translateY(379px) rotate(-20deg);
		opacity: 1;
	}
}.movie_card_1_482 {
	animation: 2.1s linear 0s infinite normal forwards running movie_card_1_482;
	transform-box: fill-box;
	transform-origin: 50% 50%;
	transform: translateX(250px) translateY(229px);
}
@keyframes movie_card_1_482 {
	0% {
		transform: translateX(250px) translateY(229px) rotate(0deg);
		opacity: 1;
	}
	4.76% {
		transform: translateX(350px) translateY(279px);
	}
	100% {
		opacity: 1;
		transform: translateX(550px) translateY(379px) rotate(20deg);
	}
	9.52% {
		transform: translateX(250px) translateY(229px) rotate(10deg);
	}
	14.29% {
		transform: translateX(450px) translateY(329px);
	}
	23.81% {
		transform: translateX(550px) translateY(379px) rotate(20deg);
		opacity: 1;
	}
	33.33% {
		opacity: 0;
	}
}.gishti_821 {
	animation: 2.1s linear 0s infinite normal forwards running gishti_821;
	transform-box: fill-box;
	transform-origin: 50% 50%;
	transform: translateX(282.99px) translateY(412.99px);
}
@keyframes gishti_821 {
	0% {
		transform: translateX(282.99px) translateY(412.99px) rotate(0deg);
	}
	23.81% {
		transform: translateX(282.99px) translateY(412.99px) rotate(50deg);
	}
	100% {
		transform: translateX(282.99px) translateY(412.99px) rotate(-50deg);
	}
	33.33% {
		transform: translateX(282.99px) translateY(412.99px) rotate(50deg);
	}
	57.14% {
		transform: translateX(282.99px) translateY(412.99px) rotate(0deg);
	}
	66.67% {
		transform: translateX(282.99px) translateY(412.99px) rotate(0deg);
	}
	90.48% {
		transform: translateX(282.99px) translateY(412.99px) rotate(-50deg);
	}
}.dislike_577 {
	animation: 2.1s linear 0s infinite normal forwards running dislike_577;
}
@keyframes dislike_577 {
	0% {
		opacity: 0;
	}
	66.67% {
		opacity: 0;
	}
	80.95% {
		opacity: 0;
	}
	90.48% {
		opacity: 1;
	}
	100% {
		opacity: 0;
	}
}.like_971 {
	animation: 2.1s linear 0s infinite normal forwards running like_971;
}
@keyframes like_971 {
	0% {
		opacity: 0;
	}
	14.29% {
		opacity: 0;
	}
	23.81% {
		opacity: 1;
	}
	33.33% {
		opacity: 0;
	}
	100% {
		opacity: 1;
	}
}
</style><g clip-path="url(#clip_0_42)"><g transform="translate(250 171)" class="movie_card_3_881">
<rect width="300" height="400" rx="15" fill="#C4C4C4"/>
<rect width="200" height="55" rx="15" fill="#E5E5E5" x="20" y="324"/></g><g transform="translate(250 197)" class="movie_card_2_421">
<rect width="300" height="400" rx="15" fill="#C4C4C4"/>
<rect width="200" height="55" rx="15" fill="#E5E5E5" x="20" y="324"/></g><g transform="translate(250 229)" class="movie_card_1_482">
<rect width="300" height="400" rx="15" fill="#C4C4C4"/>
<rect width="200" height="55" rx="15" fill="#E5E5E5" x="20" y="324"/></g><g transform="translate(282.99 412.99)" class="gishti_821"><g transform="translate(73.55 0) rotate(20)">
<path d="M165.815 68.4927C163.443 61.971 156.628 57.5868 148.86 57.5868C146.636 57.5868 144.49 57.9565 142.479 58.6871C140.614 59.3663 138.344 60.7159 136.199 62.3979C132.973 55.2887 125.811 50.6095 117.922 50.6095C115.584 50.6095 113.278 51.0192 111.063 51.8215C106.556 53.4634 102.984 56.5868 100.701 60.4523C96.9546 56.0223 91.3691 53.3087 85.3603 53.3087C83.0249 53.3087 80.7155 53.7185 78.5007 54.5208C73.7876 56.2372 69.4674 59.4465 66.5831 63.6558L48.8549 14.9977C45.4366 5.60481 38.5579 0 30.4545 0C28.3111 0 26.1191 0.401162 23.9445 1.19489C13.3922 5.03458 8.83079 16.313 13.0951 28.0269L54.7828 141.67L33.3491 131.04C30.1881 129.564 26.841 128.819 23.4025 128.819C14.3907 128.819 6.09675 134.131 2.26516 142.355C-0.389461 148.049 -0.674162 154.433 1.4623 160.333C3.59876 166.244 7.91261 170.964 13.3949 173.514C13.5898 173.617 33.3415 184.171 60.6815 196.913L65.1236 198.994C82.651 207.226 99.2069 215 118.394 215H118.397C127.532 215 136.678 213.286 146.356 209.765C180.357 197.389 185.517 176.179 187.89 155.519C190.17 135.644 166.813 71.2235 165.815 68.4927ZM179.347 154.536C177.115 173.987 172.868 190.962 143.414 201.684C134.692 204.856 126.509 206.401 118.394 206.401H118.391C101.124 206.401 86.1331 199.36 68.7776 191.211L64.3126 189.119C37.2048 176.483 17.6451 166.032 17.2381 165.826C13.6329 164.141 10.9013 161.153 9.54487 157.407C8.18843 153.657 8.37064 149.599 10.0573 145.983C12.5201 140.696 17.6368 137.412 23.405 137.412C25.5798 137.412 27.7033 137.888 29.6205 138.785L60.6205 154.158C62.1967 154.94 64.0878 154.688 65.3998 153.508C66.709 152.333 67.1727 150.479 66.5647 148.828L21.1691 25.0784C19.1358 19.4879 19.4116 11.9947 26.8868 9.27258C28.1217 8.8227 29.3251 8.59633 30.4598 8.59633C34.7952 8.59633 38.6502 12.0893 40.7838 17.9377L68.2479 93.3304C69.0624 95.5625 71.5356 96.7116 73.756 95.8978C75.988 95.0869 77.1392 92.6169 76.3219 90.3876L72.3989 79.6164C69.1612 70.7277 76.0365 64.5699 81.4459 62.6013C82.7123 62.14 84.0303 61.905 85.3628 61.905C90.1652 61.905 94.4987 64.9367 96.1419 69.4498L101.487 84.1352L101.536 84.2612C102.35 86.4934 104.824 87.6425 107.044 86.8287C109.273 86.0149 110.424 83.5506 109.61 81.3213L107.098 74.4184C105.056 68.5385 108.152 62.0283 114.002 59.8992C115.269 59.4379 116.587 59.2029 117.922 59.2029C122.722 59.2029 127.052 62.2374 128.698 66.7505L134.984 84.0119L135.067 84.2498C135.879 86.4791 138.338 87.6339 140.578 86.8172C142.808 86.0063 143.959 83.5363 143.144 81.307L139.399 71.0286C140.725 69.6532 143.516 67.4525 145.415 66.762C146.478 66.3751 147.636 66.1774 148.856 66.1774C152.96 66.1774 156.608 68.3351 157.735 71.4269C164.328 89.5193 181.051 139.696 179.347 154.536Z" fill="white" transform="translate(0 0) rotate(20.01)"/></g></g><g transform="translate(335 364)" class="dislike_577">
<rect width="130" height="130" rx="15" fill="white" fill-opacity="0.6"/><g transform="translate(26 26)">
<path d="M6.65 12.1C9.88087 12.1 12.5 9.48087 12.5 6.25C12.5 3.01913 9.88087 0.4 6.65 0.4C3.41913 0.4 0.799999 3.01913 0.799999 6.25C0.799999 9.48087 3.41913 12.1 6.65 12.1Z" fill="black" fill-opacity="0.6" transform="translate(46.8 23.4)"/>
<path d="M6.35 12.1C9.58087 12.1 12.2 9.48087 12.2 6.25C12.2 3.01913 9.58087 0.4 6.35 0.4C3.11913 0.4 0.5 3.01913 0.5 6.25C0.5 9.48087 3.11913 12.1 6.35 12.1Z" fill="black" fill-opacity="0.6" transform="translate(19.5 23.4)"/>
<path d="M38.961 0C17.433 0 0 17.472 0 39C0 60.528 17.433 78 38.961 78C60.528 78 78 60.528 78 39C78 17.472 60.528 0 38.961 0ZM39 70.2C21.762 70.2 7.8 56.238 7.8 39C7.8 21.762 21.762 7.8 39 7.8C56.238 7.8 70.2 21.762 70.2 39C70.2 56.238 56.238 70.2 39 70.2ZM39 56.55C41.847 56.55 44.421 57.291 46.683 58.617C47.151 58.071 50.037 54.795 50.622 54.171C47.307 51.987 43.329 50.7 39 50.7C34.671 50.7 30.693 51.987 27.339 54.132C31.122 58.383 27.378 54.21 31.278 58.578C33.579 57.291 36.153 56.55 39 56.55Z" fill="black" fill-opacity="0.6" transform="translate(0 0)"/></g></g><g transform="translate(335 364)" class="like_971">
<rect width="130" height="130" rx="15" fill="white" fill-opacity="0.6"/>
<path d="M38.961 0C17.433 0 0 17.433 0 39C0 60.567 17.433 78 38.961 78C60.489 78 78 60.567 78 39C78 17.433 60.528 0 38.961 0ZM39 70.2C21.762 70.2 7.8 56.238 7.8 39C7.8 21.762 21.762 7.8 39 7.8C56.238 7.8 70.2 21.762 70.2 39C70.2 56.238 56.238 70.2 39 70.2ZM42.9 30.966L47.034 35.1L51.168 30.966L55.302 35.1L59.436 30.966L51.168 22.698L42.9 30.966ZM26.832 30.966L30.966 35.1L35.1 30.966L26.832 22.698L18.564 30.966L22.698 35.1L26.832 30.966V30.966ZM39 60.45C48.087 60.45 55.809 54.756 58.929 46.8H19.071C22.191 54.756 29.913 60.45 39 60.45Z" fill="black" fill-opacity="0.6" transform="translate(26 26)"/></g></g>
<defs><clipPath id="clip_0_42"><rect width="800" height="800"/></clipPath>
</defs>
</svg>